<svg width="312" height="56" viewBox="0 0 312 56" fill="none" xmlns="http://www.w3.org/2000/svg">
<g filter="url(#filter0_d_151_52)">
<path d="M4.448 47V1.24H27.808V3.928H7.52V20.76H26.08V23.384H7.52V47H4.448ZM39.823 47V1.24H42.895V47H39.823ZM62.7045 8.536L62.8325 13.976V47H59.7605V0.855999H61.1685L91.3125 35.608C93.3605 38.04 94.9392 39.9813 96.0485 41.432C95.8778 39.384 95.7925 37.0373 95.7925 34.392V1.24H98.8645V47.384H97.4565L66.7365 11.992C64.6032 9.56 63.2378 7.93866 62.6405 7.128L62.7045 8.536ZM127.601 35.928L140.849 2.136H142.705L154.289 36.184C155.185 38.872 155.782 40.8133 156.081 42.008C156.422 40.6 157.019 38.68 157.873 36.248L169.649 1.24H172.849L156.913 47.384H155.121L143.281 13.464C143.11 12.9093 142.918 12.3547 142.705 11.8C142.534 11.2453 142.385 10.7547 142.257 10.328C142.129 9.90133 142.001 9.53867 141.873 9.24L141.617 8.472C141.574 8.25866 141.553 8.13066 141.553 8.088C141.041 9.624 140.379 11.3947 139.569 13.4L126.193 47.384H124.401L108.337 1.24H111.729L123.441 35.672C123.995 37.208 124.443 38.5947 124.785 39.832C125.169 41.0693 125.382 41.752 125.425 41.88C125.638 40.8987 126.363 38.9147 127.601 35.928ZM182.323 47V1.24H185.395V47H182.323ZM222.037 5.272C218.922 3.94933 215.829 3.288 212.757 3.288C206.527 3.288 203.413 5.592 203.413 10.2C203.413 12.2053 204.117 14.0827 205.525 15.832C206.933 17.5387 208.639 19.0747 210.645 20.44C212.65 21.7627 214.655 23.128 216.661 24.536C218.666 25.944 220.373 27.6293 221.781 29.592C223.189 31.5547 223.893 33.688 223.893 35.992C223.893 39.8747 222.591 42.8187 219.989 44.824C217.386 46.7867 213.781 47.768 209.173 47.768C204.607 47.768 200.703 46.5947 197.461 44.248L198.997 41.944C202.069 43.9493 205.439 44.952 209.109 44.952C212.778 44.952 215.594 44.2267 217.557 42.776C219.519 41.2827 220.501 39.1493 220.501 36.376C220.501 34.456 219.797 32.6427 218.389 30.936C216.981 29.1867 215.274 27.6293 213.269 26.264C211.263 24.856 209.258 23.4267 207.253 21.976C205.247 20.5253 203.541 18.7973 202.133 16.792C200.725 14.7867 200.021 12.632 200.021 10.328C200.021 7.29866 201.13 4.90933 203.349 3.16C205.61 1.368 208.639 0.471996 212.437 0.471996C216.277 0.471996 219.839 1.24 223.125 2.776L222.037 5.272ZM237.26 47V1.24H258.509V3.928H240.333V20.76H256.781V23.384H240.333V44.312H259.213V47H237.26ZM271.51 47V1.432C275.564 1.13333 278.956 0.983997 281.687 0.983997C286.039 0.983997 289.623 2.11466 292.439 4.376C295.255 6.59467 296.663 9.752 296.663 13.848C296.663 16.6213 295.852 19.2027 294.231 21.592C292.609 23.9813 290.796 25.88 288.791 27.288C290.369 29.464 292.311 32.0667 294.615 35.096C296.961 38.0827 298.476 39.96 299.159 40.728C301.761 43.5013 304.705 45.08 307.991 45.464L307.927 47.512C305.324 47.4693 303.212 47.0853 301.591 46.36C299.969 45.592 298.412 44.44 296.919 42.904C295.468 41.368 291.82 36.5893 285.975 28.568C281.793 28.568 277.996 28.44 274.583 28.184V47H271.51ZM284.119 26.008C285.996 26.008 288.001 24.7707 290.135 22.296C292.268 19.8213 293.335 16.9627 293.335 13.72C293.335 10.4347 292.225 7.96 290.007 6.296C287.831 4.58933 284.929 3.736 281.303 3.736C279.383 3.736 277.143 3.82133 274.583 3.992V25.688C277.996 25.9013 281.175 26.008 284.119 26.008Z" fill="white"/>
</g>
<defs>
<filter id="filter0_d_151_52" x="0.448242" y="0.471985" width="311.542" height="55.296" filterUnits="userSpaceOnUse" color-interpolation-filters="sRGB">
<feFlood flood-opacity="0" result="BackgroundImageFix"/>
<feColorMatrix in="SourceAlpha" type="matrix" values="0 0 0 0 0 0 0 0 0 0 0 0 0 0 0 0 0 0 127 0" result="hardAlpha"/>
<feOffset dy="4"/>
<feGaussianBlur stdDeviation="2"/>
<feComposite in2="hardAlpha" operator="out"/>
<feColorMatrix type="matrix" values="0 0 0 0 0 0 0 0 0 0 0 0 0 0 0 0 0 0 0.25 0"/>
<feBlend mode="normal" in2="BackgroundImageFix" result="effect1_dropShadow_151_52"/>
<feBlend mode="normal" in="SourceGraphic" in2="effect1_dropShadow_151_52" result="shape"/>
</filter>
</defs>
</svg>
