<svg width="191" height="73" viewBox="0 0 191 73" fill="none" xmlns="http://www.w3.org/2000/svg">
<g clip-path="url(#clip0_165_41)">
<path d="M189.697 67.1478C189.825 66.9493 189.88 66.6809 189.825 66.3079C189.768 65.9295 189.601 65.4751 189.324 64.9532C188.768 63.9097 187.824 62.6958 186.691 61.4405C184.428 58.9357 181.498 56.3621 179.684 54.8032L179.679 54.7983L179.673 54.7933C176.789 52.1621 170.542 44.652 164.401 37.0979C162.28 34.4893 160.17 31.8723 158.208 29.4401C154.469 24.8041 151.272 20.8394 149.578 18.8838L149.574 18.8797C145.212 13.7351 140.15 9.95392 133.095 9.70045C129.773 9.57638 126.017 9.96538 122.658 11.1749C119.301 12.3838 116.372 14.3993 114.637 17.5103L114.633 17.517L114.629 17.5235C113.136 20.0176 112.623 23.0412 112.367 26.1445L112.366 26.1549L112.364 26.1653C112.238 27.1787 112.177 28.5364 112.13 29.9198C112.119 30.2364 112.109 30.5544 112.099 30.8692C112.066 31.9181 112.035 32.9326 111.98 33.7447C111.747 37.184 110.35 39.0329 108.581 39.6022C107.94 39.8086 107.276 39.836 106.643 39.7211C107.598 40.5448 108.714 41.1748 109.933 41.5635C110.742 41.8223 112.067 41.6037 113.144 40.7688C113.857 40.2169 114.451 39.4009 114.681 38.2921C114.668 37.5741 114.69 36.9375 114.74 36.4405L115.734 36.4321C115.817 37.1405 115.792 37.7898 115.683 38.3793C115.709 39.5341 115.83 40.9131 116.084 42.2449C116.29 43.3261 116.579 44.3555 116.966 45.1995C117.356 46.0519 117.82 46.6615 118.344 46.9766L118.368 46.9911L118.391 47.0083C119.457 47.8263 119.952 47.7362 120.189 47.5714C120.344 47.4637 120.5 47.2609 120.639 46.9289C120.777 46.6007 120.882 46.1845 120.96 45.7021C121.115 44.7364 121.148 43.5845 121.156 42.5049C121.157 42.273 121.158 42.0425 121.159 41.8175C121.16 41.023 121.162 40.2963 121.216 39.8141L122.213 39.8693C122.213 42.1416 122.72 44.8789 123.646 47.4994C124.572 50.1218 125.903 52.5892 127.523 54.3431L127.538 54.359L127.551 54.3761C128.419 55.4964 129.471 56.2158 130.403 56.2962C130.853 56.3349 131.29 56.2283 131.703 55.9248C132.121 55.6177 132.54 55.0897 132.903 54.2467C133.237 53.2231 133.077 51.9888 132.787 50.5952C132.732 50.331 132.672 50.0605 132.611 49.7861C132.361 48.6595 132.096 47.4668 132.096 46.367L133.094 46.3149C133.342 48.6849 134.47 51.5349 136.094 54.0903C137.72 56.648 139.8 58.8447 141.898 59.9588L141.907 59.9636L141.916 59.9688C143.452 60.8678 144.395 61.0567 144.938 60.9431C145.397 60.8471 145.695 60.4974 145.838 59.7837C145.982 59.0601 145.928 58.0913 145.761 57.0443C145.595 56.0078 145.325 54.9405 145.069 54.0397L146.012 53.7128C146.271 54.3434 146.518 54.9735 146.763 55.5985C148.266 59.4333 149.692 63.0736 153.337 65.4407L153.347 65.4473C154.043 65.9238 154.614 66.2465 155.075 66.4463C155.542 66.6483 155.866 66.7112 156.081 66.7043C156.276 66.6981 156.37 66.6364 156.432 66.5639C156.509 66.474 156.582 66.3086 156.617 66.027C156.686 65.4571 156.569 64.6308 156.332 63.6776C156.099 62.739 155.765 61.7337 155.443 60.8288L156.376 60.4708C157.239 62.5702 159.306 64.9767 161.774 67.0342C164.238 69.0886 167.025 70.7315 169.263 71.3548L169.274 71.3581C170.321 71.6763 171.094 71.8079 171.65 71.8098C172.209 71.8116 172.484 71.6829 172.618 71.5554C172.745 71.4349 172.832 71.234 172.823 70.8805C172.815 70.5226 172.708 70.0699 172.513 69.5399C172.126 68.4817 171.443 67.2499 170.773 66.0934C170.664 65.904 170.554 65.7156 170.445 65.5298C169.911 64.6133 169.414 63.7624 169.184 63.1848L170.049 62.7012C170.383 63.1483 170.775 63.4345 171.213 63.7174C171.28 63.7603 171.349 63.8038 171.419 63.8484C171.787 64.0805 172.199 64.3409 172.56 64.6934C174.683 66.1839 178.537 67.5313 182.14 68.1126C183.946 68.4038 185.654 68.4966 187.019 68.3315C188.414 68.1628 189.312 67.7424 189.697 67.1478ZM189.697 67.1478L190.117 67.4193" stroke="white"/>
<path d="M190.054 67.4693C190.182 67.2708 190.237 67.0024 190.182 66.6294C190.125 66.251 189.958 65.7966 189.681 65.2747C189.125 64.2312 188.181 63.0173 187.048 61.762C184.785 59.2572 181.855 56.6836 180.041 55.1247L180.036 55.1198L180.03 55.1148C177.146 52.4836 170.899 44.9735 164.758 37.4194C162.637 34.8108 160.527 32.1938 158.565 29.7616C154.826 25.1256 151.629 21.1609 149.935 19.2053L149.931 19.2012C145.569 14.0566 140.507 10.2755 133.452 10.022C130.13 9.89792 126.374 10.2869 123.015 11.4964C119.658 12.7053 116.729 14.7208 114.994 17.8318L114.99 17.8385L114.986 17.845C113.493 20.3391 112.98 23.3627 112.724 26.466L112.723 26.4764L112.721 26.4868C112.595 27.5002 112.534 28.8579 112.487 30.2413C112.476 30.5579 112.466 30.8759 112.456 31.1907C112.423 32.2396 112.392 33.2541 112.337 34.0662C112.104 37.5055 110.707 39.3544 108.938 39.9237C108.297 40.1301 107.633 40.1575 107 40.0426C107.955 40.8663 109.071 41.4963 110.29 41.885C111.099 42.1438 112.424 41.9252 113.501 41.0903C114.214 40.5384 114.808 39.7224 115.038 38.6136C115.025 37.8956 115.047 37.259 115.097 36.762L116.091 36.7536C116.174 37.462 116.149 38.1113 116.04 38.7008C116.066 39.8556 116.187 41.2346 116.441 42.5664C116.647 43.6476 116.936 44.677 117.323 45.521C117.713 46.3734 118.177 46.983 118.701 47.2981L118.725 47.3126L118.748 47.3298C119.814 48.1478 120.309 48.0577 120.546 47.8929C120.701 47.7852 120.857 47.5824 120.996 47.2504C121.134 46.9222 121.239 46.506 121.317 46.0236C121.472 45.0579 121.505 43.906 121.513 42.8264C121.514 42.5945 121.515 42.364 121.516 42.139C121.517 41.3445 121.519 40.6178 121.573 40.1356L122.57 40.1908C122.57 42.4631 123.077 45.2004 124.003 47.8209C124.929 50.4433 126.26 52.9107 127.88 54.6646L127.895 54.6805L127.908 54.6976C128.776 55.8179 129.828 56.5373 130.76 56.6177C131.21 56.6564 131.647 56.5498 132.06 56.2463C132.478 55.9392 132.897 55.4112 133.26 54.5682C133.594 53.5446 133.434 52.3103 133.144 50.9167C133.089 50.6525 133.029 50.382 132.968 50.1076C132.718 48.981 132.453 47.7883 132.453 46.6885L133.451 46.6364C133.699 49.0064 134.827 51.8564 136.451 54.4118C138.077 56.9695 140.157 59.1662 142.255 60.2803L142.264 60.2851L142.273 60.2903C143.809 61.1893 144.752 61.3782 145.295 61.2646C145.754 61.1686 146.052 60.8189 146.195 60.1052C146.339 59.3816 146.285 58.4128 146.118 57.3658C145.952 56.3293 145.682 55.262 145.426 54.3612L146.369 54.0343C146.628 54.6649 146.875 55.295 147.12 55.92C148.623 59.7548 150.049 63.3951 153.694 65.7622L153.704 65.7688C154.4 66.2453 154.971 66.568 155.432 66.7678C155.899 66.9698 156.223 67.0327 156.438 67.0258C156.633 67.0196 156.727 66.9579 156.789 66.8854C156.866 66.7955 156.939 66.6301 156.974 66.3485C157.043 65.7786 156.926 64.9523 156.689 63.9991C156.456 63.0605 156.122 62.0552 155.8 61.1503L156.733 60.7923C157.596 62.8917 159.663 65.2982 162.131 67.3557C164.595 69.4101 167.382 71.053 169.62 71.6763L169.631 71.6796C170.678 71.9978 171.451 72.1294 172.007 72.1313C172.566 72.1331 172.841 72.0044 172.975 71.8769C173.102 71.7564 173.189 71.5555 173.18 71.202C173.172 70.8441 173.065 70.3914 172.87 69.8614C172.483 68.8032 171.8 67.5714 171.13 66.4149C171.021 66.2255 170.911 66.0371 170.802 65.8513C170.268 64.9348 169.771 64.0839 169.541 63.5063L170.406 63.0227C170.74 63.4698 171.132 63.756 171.57 64.0389C171.637 64.0818 171.706 64.1253 171.776 64.1699C172.144 64.402 172.556 64.6624 172.917 65.0149C175.04 66.5054 178.894 67.8528 182.497 68.4341C184.303 68.7253 186.011 68.8181 187.376 68.653C188.771 68.4843 189.669 68.0639 190.054 67.4693ZM190.054 67.4693L190.474 67.7408" stroke="white"/>
<path d="M143.706 23.2363C144.768 25.4831 146.029 27.6108 147.028 29.889C147.551 31.0233 147.951 32.2103 148.222 33.43C148.285 33.7366 148.333 34.0463 148.365 34.3579C148.405 34.6723 148.426 34.989 148.428 35.306C148.424 35.6361 148.354 35.9622 148.224 36.2654C148.086 36.5788 147.86 36.8445 147.572 37.0293C146.995 37.3504 146.328 37.4698 145.675 37.3686C144.408 37.2052 143.208 36.7005 142.203 35.9082C141.727 35.497 141.278 35.0549 140.859 34.5848C139.186 32.7132 137.932 30.5406 136.604 28.4713L137 28.3545C137.02 28.7444 137.066 29.1325 137.139 29.5161L137.345 30.7024C137.494 31.5021 137.594 32.3102 137.645 33.1222C137.669 33.5358 137.657 33.9506 137.612 34.3624C137.572 34.7946 137.442 35.2136 137.229 35.5914C137.114 35.7891 136.962 35.9623 136.781 36.1014C136.594 36.2354 136.383 36.3309 136.16 36.3822L135.997 36.4182C135.941 36.4182 135.887 36.4182 135.831 36.4339H135.667H135.508C135.4 36.4315 135.293 36.4225 135.186 36.4069C135.132 36.4069 135.076 36.3935 135.022 36.3822L134.863 36.3395C134.445 36.2133 134.062 35.9919 133.743 35.6925C133.437 35.4076 133.164 35.0887 132.93 34.7421C132.476 34.0593 132.101 33.3275 131.81 32.5605C131.516 31.802 131.277 31.0234 131.093 30.2305C130.896 29.4353 130.785 28.621 130.762 27.8018L131.123 27.7883C131.135 28.5552 131.003 29.3175 130.733 30.0351C130.493 30.7537 130.153 31.4345 129.723 32.0572C129.504 32.3742 129.237 32.6541 128.93 32.8862C128.769 33.0062 128.59 33.0982 128.399 33.1581C128.197 33.212 127.985 33.212 127.783 33.1581C127.403 33.028 127.08 32.771 126.867 32.4301C126.812 32.352 126.761 32.271 126.714 32.1875C126.664 32.1071 126.619 32.023 126.58 31.9359C126.489 31.7688 126.414 31.5935 126.356 31.4124C126.137 30.6946 126.028 29.9476 126.034 29.197C126.025 28.4536 126.075 27.7107 126.181 26.975C126.369 25.5035 126.745 24.0626 127.301 22.6881C127.042 23.3794 126.834 24.0891 126.679 24.8113C126.517 25.5304 126.395 26.258 126.314 26.9907C126.227 27.7205 126.196 28.4558 126.219 29.1903C126.234 29.9196 126.357 30.6426 126.582 31.336C126.638 31.5062 126.709 31.6709 126.795 31.828C126.833 31.9059 126.876 31.981 126.925 32.0527C126.969 32.1304 127.018 32.2054 127.071 32.2774C127.254 32.566 127.53 32.7838 127.852 32.8952C128.009 32.9316 128.173 32.9262 128.327 32.8795C128.488 32.8306 128.64 32.7546 128.775 32.6548C129.054 32.4369 129.296 32.1751 129.492 31.8797C129.895 31.2776 130.211 30.6219 130.433 29.9317C130.675 29.257 130.79 28.5433 130.773 27.8265L131.132 27.8108C131.169 28.5999 131.285 29.3834 131.477 30.1497C131.66 30.9232 131.897 31.683 132.187 32.4234C132.47 33.1598 132.832 33.8628 133.268 34.5196C133.487 34.8378 133.74 35.1302 134.023 35.3914C134.294 35.6458 134.619 35.8348 134.973 35.9441L135.105 35.9801C135.148 35.9801 135.195 35.9913 135.24 35.998C135.331 36.0114 135.423 36.0189 135.515 36.0205H135.656L135.791 36.0093C135.835 36.0093 135.882 36.0093 135.927 36.0093L136.055 35.9801C136.224 35.9446 136.384 35.8726 136.523 35.769C136.662 35.6654 136.776 35.5327 136.859 35.3802C137.039 35.0542 137.147 34.6934 137.177 34.3219C137.219 33.9339 137.228 33.5431 137.204 33.1536C137.146 32.3542 137.046 31.5585 136.904 30.7698L136.702 29.5812C136.627 29.1739 136.58 28.7617 136.563 28.3477L136.55 27.5883L136.96 28.2309C138.29 30.3227 139.527 32.4773 141.155 34.3152C141.558 34.7722 141.99 35.203 142.447 35.6048C142.916 35.9814 143.434 36.2914 143.986 36.526C144.535 36.773 145.117 36.9395 145.713 37.0203C146.291 37.121 146.885 37.0278 147.404 36.7552C147.643 36.6056 147.832 36.3892 147.949 36.1328C148.066 35.8661 148.13 35.5793 148.139 35.288C148.142 34.9877 148.126 34.6875 148.09 34.3893C148.064 34.0841 148.023 33.7804 147.967 33.4794C147.709 32.2748 147.334 31.0986 146.847 29.9677C145.913 27.6782 144.687 25.5123 143.706 23.2363Z" fill="#EAE3D9"/>
<path d="M0.420113 66.4693C0.292113 66.2708 0.237122 66.0024 0.292122 65.6294C0.349122 65.251 0.516114 64.7966 0.793114 64.2747C1.34911 63.2312 2.29312 62.0173 3.42612 60.762C5.68912 58.2572 8.61911 55.6836 10.4331 54.1247L10.4381 54.1198L10.4441 54.1148C13.3281 51.4836 19.5751 43.9735 25.7161 36.4194C27.8371 33.8108 29.9471 31.1938 31.9091 28.7616C35.6481 24.1256 38.8451 20.1609 40.5391 18.2053L40.5431 18.2012C44.9051 13.0566 49.9671 9.27546 57.0221 9.02199C60.3441 8.89792 64.1001 9.28692 67.4591 10.4964C70.8161 11.7053 73.7451 13.7208 75.4801 16.8318L75.4841 16.8385L75.4881 16.845C76.9811 19.3391 77.4941 22.3627 77.7501 25.466L77.7511 25.4764L77.7531 25.4868C77.8791 26.5002 77.9401 27.8579 77.9871 29.2413C77.9981 29.5579 78.0081 29.8759 78.0181 30.1907C78.0511 31.2396 78.0821 32.2541 78.1371 33.0662C78.3701 36.5055 79.7671 38.3544 81.5361 38.9237C82.1771 39.1301 82.8411 39.1575 83.4741 39.0426C82.5191 39.8663 81.4031 40.4963 80.1841 40.885C79.3751 41.1438 78.0501 40.9252 76.9731 40.0903C76.2601 39.5384 75.6661 38.7224 75.4361 37.6136C75.4491 36.8956 75.4271 36.259 75.3771 35.762L74.3831 35.7536C74.3001 36.462 74.3251 37.1113 74.4341 37.7008C74.4081 38.8556 74.2871 40.2346 74.0331 41.5664C73.8271 42.6476 73.5381 43.677 73.1511 44.521C72.7611 45.3734 72.2971 45.983 71.7731 46.2981L71.7491 46.3126L71.7261 46.3298C70.6601 47.1478 70.1651 47.0577 69.9281 46.8929C69.7731 46.7852 69.6171 46.5824 69.4781 46.2504C69.3401 45.9222 69.2351 45.506 69.1571 45.0236C69.0021 44.0579 68.9691 42.906 68.9611 41.8264C68.9601 41.5945 68.9591 41.364 68.9581 41.139C68.9571 40.3445 68.9551 39.6178 68.9011 39.1356L67.9041 39.1908C67.9041 41.4631 67.3971 44.2004 66.4711 46.8209C65.5451 49.4433 64.2141 51.9107 62.5941 53.6646L62.5791 53.6805L62.5661 53.6976C61.6981 54.8179 60.6461 55.5373 59.7141 55.6177C59.2641 55.6564 58.8271 55.5498 58.4141 55.2463C57.9961 54.9392 57.5771 54.4112 57.2141 53.5682C56.8801 52.5446 57.0401 51.3103 57.3301 49.9167C57.3851 49.6525 57.4451 49.382 57.5061 49.1076C57.7561 47.981 58.0211 46.7883 58.0211 45.6885L57.0231 45.6364C56.7751 48.0064 55.6471 50.8564 54.0231 53.4118C52.3971 55.9695 50.3171 58.1662 48.2191 59.2803L48.2101 59.2851L48.2011 59.2903C46.6651 60.1893 45.7221 60.3782 45.1791 60.2646C44.7201 60.1686 44.4221 59.8189 44.2791 59.1052C44.1351 58.3816 44.1891 57.4128 44.3561 56.3658C44.5221 55.3293 44.7921 54.262 45.0481 53.3612L44.1051 53.0343C43.8461 53.6649 43.5991 54.295 43.3541 54.92C41.8511 58.7548 40.4251 62.3951 36.7801 64.7622L36.7701 64.7688C36.0741 65.2453 35.5031 65.568 35.0421 65.7678C34.5751 65.9698 34.2511 66.0327 34.0361 66.0258C33.8411 66.0196 33.7471 65.9579 33.6851 65.8854C33.6081 65.7955 33.5351 65.6301 33.5001 65.3485C33.4311 64.7786 33.5481 63.9523 33.7851 62.9991C34.0181 62.0605 34.3521 61.0552 34.6741 60.1503L33.7411 59.7923C32.8781 61.8917 30.8111 64.2982 28.3431 66.3557C25.8791 68.4101 23.0921 70.053 20.8541 70.6763L20.8431 70.6796C19.7961 70.9978 19.0231 71.1294 18.4671 71.1313C17.9081 71.1331 17.6331 71.0044 17.4991 70.8769C17.3721 70.7564 17.2851 70.5555 17.2941 70.202C17.3021 69.8441 17.4091 69.3914 17.6041 68.8614C17.9911 67.8032 18.6741 66.5714 19.3441 65.4149C19.4531 65.2255 19.5631 65.0371 19.6721 64.8513C20.2061 63.9348 20.7031 63.0839 20.9331 62.5063L20.0681 62.0227C19.7341 62.4698 19.3421 62.756 18.9041 63.0389C18.8371 63.0818 18.7681 63.1253 18.6981 63.1699C18.3301 63.402 17.9181 63.6624 17.5571 64.0149C15.4341 65.5054 11.5801 66.8528 7.97712 67.4341C6.17112 67.7253 4.46312 67.8181 3.09812 67.653C1.70312 67.4843 0.805113 67.0639 0.420113 66.4693ZM0.420113 66.4693L0.000114441 66.7408" stroke="white"/>
<path d="M46.411 22.5578C45.349 24.8046 44.0879 26.9323 43.0889 29.2105C42.5659 30.3448 42.1659 31.5318 41.8949 32.7515C41.8319 33.0581 41.7839 33.3678 41.7519 33.6794C41.7119 33.9938 41.691 34.3105 41.689 34.6275C41.693 34.9576 41.763 35.2837 41.893 35.5869C42.031 35.9003 42.2569 36.166 42.5449 36.3508C43.1219 36.6719 43.7889 36.7913 44.4419 36.6901C45.7089 36.5267 46.9089 36.022 47.9139 35.2297C48.3899 34.8185 48.839 34.3764 49.258 33.9063C50.931 32.0347 52.1849 29.8621 53.5129 27.7928L53.117 27.676C53.097 28.0659 53.0509 28.454 52.9779 28.8376L52.7719 30.0239C52.6229 30.8236 52.5229 31.6317 52.4719 32.4437C52.4479 32.8573 52.46 33.2721 52.505 33.6839C52.545 34.1161 52.6749 34.5351 52.8879 34.9129C53.0029 35.1106 53.1549 35.2838 53.3359 35.4229C53.5229 35.5569 53.7339 35.6524 53.9569 35.7037L54.12 35.7397C54.176 35.7397 54.23 35.7397 54.286 35.7554H54.4499H54.609C54.717 35.753 54.8239 35.744 54.9309 35.7284C54.9849 35.7284 55.0409 35.715 55.0949 35.7037L55.2539 35.661C55.6719 35.5348 56.055 35.3134 56.374 35.014C56.68 34.7291 56.953 34.4102 57.187 34.0636C57.641 33.3808 58.016 32.649 58.307 31.882C58.601 31.1235 58.8399 30.3449 59.0239 29.552C59.2209 28.7568 59.332 27.9425 59.355 27.1233L58.9939 27.1098C58.9819 27.8767 59.1139 28.639 59.3839 29.3566C59.6239 30.0752 59.9639 30.756 60.3939 31.3787C60.6129 31.6957 60.88 31.9756 61.187 32.2077C61.348 32.3277 61.5269 32.4197 61.7179 32.4796C61.9199 32.5335 62.132 32.5335 62.334 32.4796C62.714 32.3495 63.037 32.0925 63.25 31.7516C63.305 31.6735 63.356 31.5925 63.403 31.509C63.453 31.4286 63.4979 31.3445 63.5369 31.2574C63.6279 31.0903 63.7029 30.915 63.7609 30.7339C63.9799 30.0161 64.089 29.2691 64.083 28.5185C64.092 27.7751 64.042 27.0322 63.936 26.2965C63.748 24.825 63.3719 23.3841 62.8159 22.0096C63.0749 22.7009 63.2829 23.4106 63.4379 24.1328C63.5999 24.8519 63.7219 25.5795 63.8029 26.3122C63.8899 27.042 63.9209 27.7773 63.8979 28.5118C63.8829 29.2411 63.7599 29.9641 63.5349 30.6575C63.4789 30.8277 63.408 30.9924 63.322 31.1495C63.284 31.2274 63.2409 31.3025 63.1919 31.3742C63.1479 31.4519 63.099 31.5269 63.046 31.5989C62.863 31.8875 62.587 32.1053 62.265 32.2167C62.108 32.2531 61.944 32.2477 61.79 32.201C61.629 32.1521 61.477 32.0761 61.342 31.9763C61.063 31.7584 60.8209 31.4966 60.6249 31.2012C60.2219 30.5991 59.906 29.9434 59.684 29.2532C59.442 28.5785 59.327 27.8648 59.344 27.148L58.9849 27.1323C58.9479 27.9214 58.8319 28.7049 58.6399 29.4712C58.4569 30.2447 58.22 31.0045 57.93 31.7449C57.647 32.4813 57.2849 33.1843 56.8489 33.8411C56.6299 34.1593 56.377 34.4517 56.094 34.7129C55.823 34.9673 55.4979 35.1563 55.1439 35.2656L55.012 35.3016C54.969 35.3016 54.9219 35.3128 54.8769 35.3195C54.7859 35.3329 54.694 35.3404 54.602 35.342H54.4609L54.3259 35.3308C54.2819 35.3308 54.2349 35.3308 54.1899 35.3308L54.062 35.3016C53.893 35.2661 53.733 35.1941 53.594 35.0905C53.455 34.9869 53.341 34.8542 53.258 34.7017C53.078 34.3757 52.9699 34.0149 52.9399 33.6434C52.8979 33.2554 52.889 32.8646 52.913 32.4751C52.971 31.6757 53.0709 30.88 53.2129 30.0913L53.415 28.9027C53.49 28.4954 53.5369 28.0832 53.5539 27.6692L53.5669 26.9098L53.1569 27.5524C51.8269 29.6442 50.59 31.7988 48.962 33.6367C48.559 34.0937 48.1269 34.5245 47.6699 34.9263C47.2009 35.3029 46.683 35.6129 46.131 35.8475C45.582 36.0945 45 36.261 44.404 36.3418C43.826 36.4425 43.2319 36.3493 42.7129 36.0767C42.4739 35.9271 42.2849 35.7107 42.1679 35.4543C42.0509 35.1876 41.9869 34.9008 41.9779 34.6095C41.9749 34.3092 41.991 34.009 42.027 33.7108C42.053 33.4056 42.094 33.1019 42.15 32.8009C42.408 31.5963 42.7829 30.4201 43.2699 29.2892C44.2039 26.9997 45.43 24.8338 46.411 22.5578Z" fill="#EAE3D9"/>
<path d="M95.1746 70.6232C114.342 70.6232 129.879 55.0375 129.879 35.8116C129.879 16.5857 114.342 1 95.1746 1C76.0076 1 60.4697 16.5857 60.4697 35.8116C60.4697 55.0375 76.0076 70.6232 95.1746 70.6232Z" fill="black" stroke="white" stroke-width="2" stroke-miterlimit="10"/>
<g style="mix-blend-mode:screen">
<path d="M106.206 19.1248H81.3433V23.8655H90.1214C93.3871 24.4024 95.8286 25.7325 96.8254 27.4873H81.35V32.228H96.5118C96.3408 32.4635 96.1456 32.6804 95.9294 32.875C93.2416 35.3105 87.6709 35.4229 82.6581 35.3465H82.2101V38.6088L98.8077 55.3428H105.487L90.1303 39.8558C93.0108 39.5278 96.626 38.6515 99.0899 36.4115C100.339 35.2954 101.243 33.8435 101.695 32.228H106.206V27.4873H101.856C101.557 26.1567 100.95 24.9158 100.082 23.8655H106.206V19.1248Z" fill="white"/>
</g>
</g>
<defs>
<clipPath id="clip0_165_41">
<rect width="191" height="73" fill="white"/>
</clipPath>
</defs>
</svg>
